Coordinates
version=1
nRows=9
nColumns=63
inDegrees=yes

Units are S.I. units (second, meters, Newtons, ...)
If the header above contains a line with 'inDegrees', this indicates whether rotational values are in degrees (yes) or radians (no).

endheader
time	pelvis_tilt	pelvis_list	pelvis_rotation	pelvis_tx	pelvis_ty	pelvis_tz	hip_flexion_r	hip_adduction_r	hip_rotation_r	knee_angle_r	knee_angle_r_beta	ankle_angle_r	subtalar_angle_r	mtp_angle_r	hip_flexion_l	hip_adduction_l	hip_rotation_l	knee_angle_l	knee_angle_l_beta	ankle_angle_l	subtalar_angle_l	mtp_angle_l	L5_S1_Flex_Ext	L5_S1_Lat_Bending	L5_S1_axial_rotation	L4_L5_Flex_Ext	L4_L5_Lat_Bending	L4_L5_axial_rotation	L3_L4_Flex_Ext	L3_L4_Lat_Bending	L3_L4_axial_rotation	L2_L3_Flex_Ext	L2_L3_Lat_Bending	L2_L3_axial_rotation	L1_L2_Flex_Ext	L1_L2_Lat_Bending	L1_L2_axial_rotation	L1_T12_Flex_Ext	L1_T12_Lat_Bending	L1_T12_axial_rotation	Abs_r3	Abs_r2	Abs_r1	Abs_t1	Abs_t2	neck_flexion	neck_bending	neck_rotation	arm_flex_r	arm_add_r	arm_rot_r	elbow_flex_r	pro_sup_r	wrist_flex_r	wrist_dev_r	arm_flex_l	arm_add_l	arm_rot_l	elbow_flex_l	pro_sup_l	wrist_flex_l	wrist_dev_l
      2.00000000	     -1.75627905	     -1.18901081	     83.62636353	      0.31476388	      0.89270005	      0.55439217	      0.92759395	     -4.23936886	     -7.34551014	     13.15534264	      0.22960404	     38.77193556	      9.74134802	      0.00000000	     -3.03836298	      2.28111569	     10.07964398	      1.72607325	      0.03012566	     35.50061542	     -8.83611622	      0.00000000	      0.14528773	     -0.80068220	     -1.40462914	      0.26981384	     -1.06490733	     -1.49241846	      0.23869321	     -1.94677870	     -1.49241846	      0.16604934	     -1.94677870	     -1.22905050	      0.13491418	     -1.63275114	     -1.14126117	      0.08301741	     -1.24025673	     -1.05347185	      1.03777570	     -9.05747717	     -7.81212588	      0.00000000	      0.00000000	     26.32182317	      1.46935537	     -9.65621180	     51.49925035	    -68.11873093	    -65.11359413	     99.32089992	     60.14710855	     13.49808546	     -8.04901392	     22.70110553	    -15.63977900	     83.49422143	     46.88182336	     45.23950556	     -1.91721085	      3.24408198
      2.01694915	     -1.83556215	     -1.13948022	     83.44225474	      0.31472373	      0.89274169	      0.55390075	      0.79235340	     -4.29798172	     -7.02285616	     12.93177033	      0.22570197	     38.68131131	      9.44869370	      0.00000000	     -3.13339955	      2.39770828	      9.74369482	      1.66879693	      0.02912600	     35.48304712	     -8.64850109	      0.00000000	      0.14963338	     -0.80395538	     -1.39723889	      0.27788415	     -1.06926066	     -1.48456632	      0.24583268	     -1.95473712	     -1.48456632	      0.17101599	     -1.95473712	     -1.22258403	      0.13894956	     -1.63942582	     -1.13525660	      0.08550051	     -1.24532689	     -1.04792917	      1.06881627	     -9.09450407	     -7.77102355	      0.00000000	      0.00000000	     26.02495236	      1.20955546	    -10.94664127	     52.53665921	    -68.44673280	    -63.52091907	     98.69099315	     57.98242644	     12.67750834	     -9.87863826	     22.75686560	    -15.17968162	     83.47896969	     46.96521983	     42.68993276	     -0.83318282	      4.14283040
      2.03389831	     -1.84210640	     -1.04875464	     83.29038231	      0.31471148	      0.89285839	      0.55347737	      0.61215038	     -4.24114393	     -6.19239221	     12.71712771	      0.22195575	     38.51276376	      8.62413791	      0.00000000	     -3.25877049	      2.42460411	      9.33495103	      1.62960546	      0.02844198	     35.57837461	     -8.21658788	      0.00000000	      0.15043237	     -0.79487494	     -1.38384349	      0.27936795	     -1.05718367	     -1.47033370	      0.24714533	     -1.93265893	     -1.47033370	      0.17192915	     -1.93265893	     -1.21086305	      0.13969149	     -1.62090898	     -1.12437283	      0.08595705	     -1.23126128	     -1.03788261	      1.07452334	     -8.99178432	     -7.69652232	      0.00000000	      0.00000000	     25.55385003	      0.99295830	    -11.41287430	     53.66620445	    -69.02562545	    -61.29943376	     97.92512882	     56.75525945	     11.10713784	    -13.50530565	     23.02656882	    -14.65090175	     84.33419672	     46.79183946	     39.23492151	     -0.11395308	      4.12360382
      2.05084746	     -1.98825171	     -0.93490208	     83.18388622	      0.31497551	      0.89318244	      0.55311249	      0.38808295	     -4.36568164	     -5.98303285	     12.44536857	      0.21721266	     38.41377132	      8.48608797	      0.00000000	     -3.40472818	      2.58435191	      9.23035874	      1.53774124	      0.02683865	     35.52898881	     -8.20538476	      0.00000000	      0.14950160	     -0.81941889	     -1.34830757	      0.27763942	     -1.08982712	     -1.43257679	      0.24561618	     -1.99233509	     -1.43257679	      0.17086538	     -1.99233509	     -1.17976912	      0.13882718	     -1.67095900	     -1.09549990	      0.08542521	     -1.26927986	     -1.01123068	      1.06787496	     -9.26943036	     -7.49888221	      0.00000000	      0.00000000	     24.84545037	      0.68289924	    -13.07025832	     54.27073405	    -69.43024492	    -60.41841395	     97.43891506	     56.45015073	     10.79178394	    -14.97668488	     23.04914797	    -14.34789183	     84.31252020	     46.67067518	     38.62574010	      0.11807500	      4.55904544
      2.06779661	     -1.98080187	     -0.84249450	     83.02721253	      0.31506443	      0.89339071	      0.55295184	      0.23849211	     -4.29248831	     -5.09527592	     12.27068622	      0.21416388	     38.19573074	      7.56458703	      0.00000000	     -3.48302575	      2.58439216	      8.31323784	      1.57359312	      0.02746438	     35.80849152	     -7.05747027	      0.00000000	      0.14541312	     -0.81328998	     -1.32062861	      0.27004671	     -1.08167567	     -1.40316790	      0.23889922	     -1.97743325	     -1.40316790	      0.16619266	     -1.97743325	     -1.15555004	      0.13503063	     -1.65846092	     -1.07301075	      0.08308906	     -1.25978617	     -0.99047146	      1.03867140	     -9.20009887	     -7.34494016	      0.00000000	      0.00000000	     24.38585380	      0.44161284	    -13.81980424	     55.66790064	    -70.03221778	    -58.48285323	     96.70338937	     57.00599335	     10.55529098	    -18.14316138	     23.24186892	    -14.02974842	     84.82064050	     46.54899592	     37.07681298	      0.11111679	      4.52528429
      2.08474576	     -2.02826644	     -0.80084460	     82.88979228	      0.31554709	      0.89361764	      0.55279272	      0.10456338	     -4.31749753	     -4.99061843	     12.03765160	      0.21009665	     38.11670317	      7.66921237	      0.00000000	     -3.52069265	      2.61005192	      7.32230030	      1.59886831	      0.02790552	     36.00527764	     -5.87632686	      0.00000000	      0.14733630	     -0.82142065	     -1.27914369	      0.27361825	     -1.09248947	     -1.35909017	      0.24205881	     -1.99720217	     -1.35909017	      0.16839066	     -1.99720217	     -1.11925073	      0.13681649	     -1.67504099	     -1.03930425	      0.08418796	     -1.27238059	     -0.95935776	      1.05240849	     -9.29207468	     -7.11421344	      0.00000000	      0.00000000	     24.05302117	      0.45962913	    -14.62548296	     56.28372148	    -70.64665954	    -57.71343553	     96.34727753	     56.89746547	     11.24367401	    -19.30741415	     23.22975998	    -13.87747965	     84.58957620	     46.44132384	     37.39067995	      0.22209894	      5.03837100
      2.10169492	     -2.02262663	     -0.79857552	     82.70297731	      0.31610399	      0.89373185	      0.55282429	      0.05494254	     -4.26771158	     -4.69276508	     11.87062696	      0.20718152	     37.99760870	      7.55457742	      0.00000000	     -3.51642371	      2.57764083	      6.54424162	      1.65844033	      0.02894524	     36.18729283	     -4.99153309	      0.00000000	      0.14931906	     -0.81916662	     -1.23670577	      0.27730043	     -1.08949160	     -1.31399988	      0.24531629	     -1.99172172	     -1.31399988	      0.17065676	     -1.99172172	     -1.08211755	      0.13865768	     -1.67044457	     -1.00482344	      0.08532091	     -1.26888909	     -0.92752933	      1.06657114	     -9.26657663	     -6.87818647	      0.00000000	      0.00000000	     24.08465304	      0.80616926	    -14.78295138	     57.61975480	    -71.26275042	    -56.70902343	     95.79354956	     58.27233226	     13.02686124	    -20.60198467	     23.22676035	    -13.73246531	     84.36819943	     46.31002268	     37.29427727	      0.26636596	      5.49664449
      2.11864407	     -1.94702019	     -0.73297413	     82.64865866	      0.31637604	      0.89376706	      0.55278782	     -0.12778182	     -4.14803443	     -4.33808537	     11.62705439	      0.20293038	     37.86036128	      7.22906718	      0.00000000	     -3.69928144	      2.51878987	      8.58209895	      1.48118067	      0.02585148	     35.54637424	     -7.64676510	      0.00000000	      0.13550899	     -0.79623763	     -1.26963161	      0.25165374	     -1.05899605	     -1.34898359	      0.22262771	     -1.93597218	     -1.34898359	      0.15487322	     -1.93597218	     -1.11092766	      0.12583364	     -1.62368778	     -1.03157569	      0.07742983	     -1.23337209	     -0.95222371	      0.96792714	     -9.00719935	     -7.06131015	      0.00000000	      0.00000000	     24.37027269	      1.41270492	    -13.69370113	     61.17220954	    -71.46752603	    -54.01937543	     95.33706009	     59.59116671	     15.54492996	    -20.76989913	     22.89786567	    -13.70606549	     83.33617927	     46.34588337	     37.48417012	      0.08906256	      5.97215734
      2.13559322	     -1.94813594	     -0.77343244	     82.51121833	      0.31719083	      0.89383375	      0.55276481	     -0.14656552	     -4.09377164	     -4.14887419	     11.46423805	      0.20008870	     37.76232532	      7.21392985	      0.00000000	     -3.71640365	      2.48427168	      9.31787084	      1.42789310	      0.02492144	     35.08012168	     -8.78474645	      0.00000000	      0.13222901	     -0.79104794	     -1.24298238	      0.24556250	     -1.05209377	     -1.32066878	      0.21723905	     -1.92335397	     -1.32066878	      0.15112454	     -1.92335397	     -1.08760958	      0.12278786	     -1.61310497	     -1.00992318	      0.07555566	     -1.22533326	     -0.93223679	      0.94449862	     -8.94849255	     -6.91309510	      0.00000000	      0.00000000	     24.66877904	      2.14140441	    -13.13528876	     62.00155250	    -72.03828351	    -53.30657343	     95.67951486	     60.90203389	     13.66726102	    -21.37266179	     22.44179350	    -13.68630939	     82.07115726	     46.33334053	     38.25237432	     -0.08947812	      6.57831417
